# xmcd
#
# Track frame offsets: 
#        150
#        16799
#        34231
#        51056
#        65421
#        80382
#        98246
#        115714
#        128465
#        149359
#        165830
#        180719
#        194480
#        213140
#        230286
#        247505
#        261703
#        276048
#        291186
#        307385
#
# Disc length: 4289 seconds
#
# Revision: 0
# Processed by: cddbd v1.5.2PL0 Copyright (c) Steve Scherf et al.
# Submitted via: ExactAudioCopy v0.99pb5
#
DISCID=1310bf14
DTITLE=Melinda Schneider - Life Begins At 40 CD1
DYEAR=2011
DGENRE=Country
TTITLE0=Lessons Learned - Be Yourself
TTITLE1=Lessons Learned - Courageous (Feat. Aus Girls Choir)
TTITLE2=Lessons Learned - Cry A Little
TTITLE3=Lessons Learned - I'll Take Care Of You
TTITLE4=Lessons Learned - You Are Something Else
TTITLE5=Lessons Learned - Eternally
TTITLE6=Lessons Learned - Outside
TTITLE7=Lessons Learned - Your Eyes Could Never Lie (The Doggie Song)
TTITLE8=Lessons Learned - Understanding
TTITLE9=Lessons Learned - Awake Now
TTITLE10=Around The Radiogram - The Deadwood Stage
TTITLE11=Around The Radiogram - The Black Hills Of Dakota
TTITLE12=Around The Radiogram - Autumn Leaves
TTITLE13=Around The Radiogram - Hey There
TTITLE14=Around The Radiogram - Secret Love
TTITLE15=Around The Radiogram - Embraceable You
TTITLE16=Around The Radiogram - I'll See You In My Dreams
TTITLE17=Milestone Duets - Still Here (duet with Paul Kelly)
TTITLE18=Milestone Duets - Courageous (duet with Olivia Newton-John)
TTITLE19=Milestone Duets - Love Somebody (duet with David Campbell)
EXTD=
EXTT0=
EXTT1=
EXTT2=
EXTT3=
EXTT4=
EXTT5=
EXTT6=
EXTT7=
EXTT8=
EXTT9=
EXTT10=
EXTT11=
EXTT12=
EXTT13=
EXTT14=
EXTT15=
EXTT16=
EXTT17=
EXTT18=
EXTT19=
PLAYORDER=
